# xmcd
#
# Track frame offsets:
#	150
#	11073
#	24670
#	45046
#	57503
#	68062
#	81238
#	92508
#	105853
#	115555
#	135625
#	146444
#	160075
#	173322
#	185187
#	197583
#	211078
#	222842
#	234265
#	248311
#	259600
#	270770
#	280116
#	292314
#	304773
#	317226
#	327869
#
# Disc length: 4519 seconds
#
# Revision: 1
# Processed by: cddbd v1.5.1PL2 Copyright (c) Steve Scherf et al.
# Submitted via: audiograbber 1.82.02
#
DISCID=6411a51b
DTITLE=Various Artist - Nr.1 Hit's in Deutschland 1960-1968
DYEAR=2002
DGENRE=Oldies
TTITLE0=Jan&Kjeid - 1960 - Banjo Boy 
TTITLE1=Heidi Brühl - 1960 - Wir wollen niemals auseinander gehen
TTITLE2=Edith Piaf - 1960 - Miord 
TTITLE3=Ted Herold - 1960 - Moonlight
TTITLE4=Connie Francis - 1960 - Liebe ist ein seltsames Spiel
TTITLE5=Lale Anderson - 1960 - Ein Schiff wird kommen
TTITLE6=Blue Diamonds - 1960 - Ramona
TTITLE7=Ivo Robic - 1961 - Mit 17 fängt das Leben erst an
TTITLE8=Ralf Bendix - 1961 - Babysitter Boogie
TTITLE9=Freddy Quinn - 1961 - La Paloma
TTITLE10=Gus Backus - 1961 - Der Mann im Mond
TTITLE11=Nana Mouskouri - 1961 - Weiße Rosen aus Athen
TTITLE12=Gerhard Wendland - 1961 - Tanze mit mir in den Morgen
TTITLE13=Bob Moore - 1962 - Mexico
TTITLE14=Conny Froboess - 1962 - Zwei kleine Italiener
TTITLE15=Mina - 1962 - Heisser Sand
TTITLE16=Peter Kraus - 1962 - Sweety
TTITLE17=Pat Boone - 1962 - Speedy Gonzales
TTITLE18=Freddy Quinn - 1962 - Junge komm bald wieder
TTITLE19=Billy Mo - 1963 - Ich kauf mir lieber einen Tirolerhut
TTITLE20=Manuela - 1963 - Schuld war nur der Bossanova
TTITLE21=Connie Francis - 1963 - Barcarole in der Nacht
TTITLE22=Gitte - 1963 - Ich will'nen Cowboy zum Mann
TTITLE23=Cliff Richard - 1963 - Rote Lippen soll man küssen
TTITLE24=Ronny - 1964 - Oh my Darling Caroline
TTITLE25=Drafi Deutscher - 1964 - Shake Hands
TTITLE26=Siw Malmkvist - 1964 - Liebeskummer lohnt sich nicht
EXTD=
EXTT0=
EXTT1=
EXTT2=
EXTT3=
EXTT4=
EXTT5=
EXTT6=
EXTT7=
EXTT8=
EXTT9=
EXTT10=
EXTT11=
EXTT12=
EXTT13=
EXTT14=
EXTT15=
EXTT16=
EXTT17=
EXTT18=
EXTT19=
EXTT20=
EXTT21=
EXTT22=
EXTT23=
EXTT24=
EXTT25=
EXTT26=
PLAYORDER=
